# xmcd CD database file
#
# Track frame offsets:
#	150
#	46806
#	87929
#	129599
#	183210
#	232631
#
# Disc length: 4014 seconds
#
# Revision: 1
# Processed by: cddbd v1.4PL0 Copyright (c) Steve Scherf et al.
# Submitted via: CDex 1.51
#
DISCID=3b0fac06
DTITLE=Ole Pullar Saxe - Oceanos 
DYEAR=1995
DGENRE=New Age
TTITLE0=Arctic Sea
TTITLE1=Mediterranean Sea
TTITLE2=Atlantic Ocean
TTITLE3=Pacific Ocean
TTITLE4=China Sea
TTITLE5=Oceanos
EXTD=YEAR: 1995
EXTT0=
EXTT1=
EXTT2=
EXTT3=
EXTT4=
EXTT5=
PLAYORDER=
